<mxfile host="Electron" modified="2025-08-22T10:20:22.345Z" agent="Mozilla/5.0 (Macintosh; Intel Mac OS X 10_15_7) AppleWebKit/537.36 (KHTML, like Gecko) draw.io/24.2.5 Chrome/120.0.6099.109 Electron/28.1.0 Safari/537.36" etag="-ok1u8HNhNJluGlU6Age" version="24.2.5" type="device">
  <diagram name="Page-1" id="ePYuvj0Es0LafMjhqhy6">
    <mxGraphModel dx="984" dy="630" grid="1" gridSize="10" guides="1" tooltips="1" connect="1" arrows="1" fold="1" page="1" pageScale="1" pageWidth="827" pageHeight="1169" math="0" shadow="0">
      <root>
        <mxCell id="0" />
        <mxCell id="1" parent="0" />
        <mxCell id="-juk4pGaV6kFhV0fjkec-10" style="edgeStyle=orthogonalEdgeStyle;rounded=0;orthogonalLoop=1;jettySize=auto;html=1;exitX=0.5;exitY=1;exitDx=0;exitDy=0;entryX=0.5;entryY=0;entryDx=0;entryDy=0;" edge="1" parent="1" source="-juk4pGaV6kFhV0fjkec-3" target="-juk4pGaV6kFhV0fjkec-5">
          <mxGeometry relative="1" as="geometry" />
        </mxCell>
        <mxCell id="-juk4pGaV6kFhV0fjkec-11" style="edgeStyle=orthogonalEdgeStyle;rounded=0;orthogonalLoop=1;jettySize=auto;html=1;exitX=0.5;exitY=1;exitDx=0;exitDy=0;entryX=0.5;entryY=0;entryDx=0;entryDy=0;" edge="1" parent="1" source="-juk4pGaV6kFhV0fjkec-3" target="-juk4pGaV6kFhV0fjkec-6">
          <mxGeometry relative="1" as="geometry" />
        </mxCell>
        <mxCell id="-juk4pGaV6kFhV0fjkec-12" style="edgeStyle=orthogonalEdgeStyle;rounded=0;orthogonalLoop=1;jettySize=auto;html=1;exitX=0.5;exitY=1;exitDx=0;exitDy=0;entryX=0.5;entryY=0;entryDx=0;entryDy=0;" edge="1" parent="1" source="-juk4pGaV6kFhV0fjkec-3" target="-juk4pGaV6kFhV0fjkec-7">
          <mxGeometry relative="1" as="geometry" />
        </mxCell>
        <mxCell id="-juk4pGaV6kFhV0fjkec-3" value="text contents 1 &amp;lt;dna&amp;gt;dna contents&amp;lt;dna&amp;gt; text contents 2" style="rounded=1;whiteSpace=wrap;html=1;fillColor=#dae8fc;strokeColor=#6c8ebf;" vertex="1" parent="1">
          <mxGeometry x="194" y="20" width="440" height="50" as="geometry" />
        </mxCell>
        <mxCell id="-juk4pGaV6kFhV0fjkec-18" style="edgeStyle=orthogonalEdgeStyle;rounded=0;orthogonalLoop=1;jettySize=auto;html=1;exitX=0.5;exitY=1;exitDx=0;exitDy=0;entryX=0.5;entryY=0;entryDx=0;entryDy=0;" edge="1" parent="1" source="-juk4pGaV6kFhV0fjkec-5" target="-juk4pGaV6kFhV0fjkec-17">
          <mxGeometry relative="1" as="geometry">
            <Array as="points">
              <mxPoint x="230" y="210" />
              <mxPoint x="310" y="210" />
            </Array>
          </mxGeometry>
        </mxCell>
        <mxCell id="-juk4pGaV6kFhV0fjkec-5" value="text contents 1" style="rounded=1;whiteSpace=wrap;html=1;fillColor=#ffe6cc;strokeColor=#d79b00;" vertex="1" parent="1">
          <mxGeometry x="170" y="130" width="120" height="60" as="geometry" />
        </mxCell>
        <mxCell id="-juk4pGaV6kFhV0fjkec-21" style="edgeStyle=orthogonalEdgeStyle;rounded=0;orthogonalLoop=1;jettySize=auto;html=1;exitX=0.5;exitY=1;exitDx=0;exitDy=0;entryX=0.5;entryY=0;entryDx=0;entryDy=0;" edge="1" parent="1" source="-juk4pGaV6kFhV0fjkec-6" target="-juk4pGaV6kFhV0fjkec-20">
          <mxGeometry relative="1" as="geometry" />
        </mxCell>
        <mxCell id="-juk4pGaV6kFhV0fjkec-6" value="dna contents" style="rounded=1;whiteSpace=wrap;html=1;fillColor=#e1d5e7;strokeColor=#9673a6;" vertex="1" parent="1">
          <mxGeometry x="354" y="130" width="120" height="60" as="geometry" />
        </mxCell>
        <mxCell id="-juk4pGaV6kFhV0fjkec-19" style="edgeStyle=orthogonalEdgeStyle;rounded=0;orthogonalLoop=1;jettySize=auto;html=1;exitX=0.5;exitY=1;exitDx=0;exitDy=0;entryX=0.5;entryY=0;entryDx=0;entryDy=0;" edge="1" parent="1" source="-juk4pGaV6kFhV0fjkec-7" target="-juk4pGaV6kFhV0fjkec-17">
          <mxGeometry relative="1" as="geometry">
            <mxPoint x="230" y="250" as="targetPoint" />
            <Array as="points">
              <mxPoint x="600" y="210" />
              <mxPoint x="310" y="210" />
            </Array>
          </mxGeometry>
        </mxCell>
        <mxCell id="-juk4pGaV6kFhV0fjkec-7" value="text contents 2" style="rounded=1;whiteSpace=wrap;html=1;fillColor=#ffe6cc;strokeColor=#d79b00;" vertex="1" parent="1">
          <mxGeometry x="540" y="130" width="120" height="60" as="geometry" />
        </mxCell>
        <mxCell id="-juk4pGaV6kFhV0fjkec-13" value="Split" style="text;html=1;align=center;verticalAlign=middle;whiteSpace=wrap;rounded=0;" vertex="1" parent="1">
          <mxGeometry x="400" y="70" width="60" height="30" as="geometry" />
        </mxCell>
        <mxCell id="-juk4pGaV6kFhV0fjkec-27" style="edgeStyle=orthogonalEdgeStyle;rounded=0;orthogonalLoop=1;jettySize=auto;html=1;exitX=0.25;exitY=1;exitDx=0;exitDy=0;entryX=0.5;entryY=0;entryDx=0;entryDy=0;" edge="1" parent="1" source="-juk4pGaV6kFhV0fjkec-17" target="-juk4pGaV6kFhV0fjkec-23">
          <mxGeometry relative="1" as="geometry" />
        </mxCell>
        <mxCell id="-juk4pGaV6kFhV0fjkec-28" style="edgeStyle=orthogonalEdgeStyle;rounded=0;orthogonalLoop=1;jettySize=auto;html=1;exitX=0.75;exitY=1;exitDx=0;exitDy=0;" edge="1" parent="1" source="-juk4pGaV6kFhV0fjkec-17" target="-juk4pGaV6kFhV0fjkec-25">
          <mxGeometry relative="1" as="geometry" />
        </mxCell>
        <mxCell id="-juk4pGaV6kFhV0fjkec-17" value="Text Tokenizer" style="rounded=0;whiteSpace=wrap;html=1;fillColor=#fff2cc;strokeColor=#d6b656;" vertex="1" parent="1">
          <mxGeometry x="250" y="260" width="120" height="60" as="geometry" />
        </mxCell>
        <mxCell id="-juk4pGaV6kFhV0fjkec-30" style="edgeStyle=orthogonalEdgeStyle;rounded=0;orthogonalLoop=1;jettySize=auto;html=1;exitX=0.5;exitY=1;exitDx=0;exitDy=0;entryX=0.5;entryY=0;entryDx=0;entryDy=0;" edge="1" parent="1" source="-juk4pGaV6kFhV0fjkec-20" target="-juk4pGaV6kFhV0fjkec-24">
          <mxGeometry relative="1" as="geometry">
            <Array as="points">
              <mxPoint x="520" y="330" />
              <mxPoint x="417" y="330" />
            </Array>
          </mxGeometry>
        </mxCell>
        <mxCell id="-juk4pGaV6kFhV0fjkec-20" value="DNA Tokenizer" style="rounded=0;whiteSpace=wrap;html=1;fillColor=#f8cecc;strokeColor=#b85450;" vertex="1" parent="1">
          <mxGeometry x="460" y="260" width="120" height="60" as="geometry" />
        </mxCell>
        <mxCell id="-juk4pGaV6kFhV0fjkec-34" value="" style="edgeStyle=orthogonalEdgeStyle;rounded=0;orthogonalLoop=1;jettySize=auto;html=1;" edge="1" parent="1" source="-juk4pGaV6kFhV0fjkec-23" target="-juk4pGaV6kFhV0fjkec-31">
          <mxGeometry relative="1" as="geometry" />
        </mxCell>
        <mxCell id="-juk4pGaV6kFhV0fjkec-23" value="text token ids 1" style="rounded=1;whiteSpace=wrap;html=1;fillColor=#ffe6cc;strokeColor=#d79b00;" vertex="1" parent="1">
          <mxGeometry x="170" y="360" width="120" height="60" as="geometry" />
        </mxCell>
        <mxCell id="-juk4pGaV6kFhV0fjkec-35" value="" style="edgeStyle=orthogonalEdgeStyle;rounded=0;orthogonalLoop=1;jettySize=auto;html=1;" edge="1" parent="1" source="-juk4pGaV6kFhV0fjkec-24" target="-juk4pGaV6kFhV0fjkec-31">
          <mxGeometry relative="1" as="geometry" />
        </mxCell>
        <mxCell id="-juk4pGaV6kFhV0fjkec-24" value="dna token ids" style="rounded=1;whiteSpace=wrap;html=1;fillColor=#e1d5e7;strokeColor=#9673a6;" vertex="1" parent="1">
          <mxGeometry x="357" y="360" width="120" height="60" as="geometry" />
        </mxCell>
        <mxCell id="-juk4pGaV6kFhV0fjkec-36" value="" style="edgeStyle=orthogonalEdgeStyle;rounded=0;orthogonalLoop=1;jettySize=auto;html=1;" edge="1" parent="1" source="-juk4pGaV6kFhV0fjkec-25" target="-juk4pGaV6kFhV0fjkec-31">
          <mxGeometry relative="1" as="geometry" />
        </mxCell>
        <mxCell id="-juk4pGaV6kFhV0fjkec-25" value="text token ids 2" style="rounded=1;whiteSpace=wrap;html=1;fillColor=#ffe6cc;strokeColor=#d79b00;" vertex="1" parent="1">
          <mxGeometry x="540" y="360" width="120" height="60" as="geometry" />
        </mxCell>
        <mxCell id="-juk4pGaV6kFhV0fjkec-31" value="Inputs ids, modality mask, attention mask" style="rounded=1;whiteSpace=wrap;html=1;fillColor=#dae8fc;strokeColor=#6c8ebf;" vertex="1" parent="1">
          <mxGeometry x="262" y="480" width="310" height="60" as="geometry" />
        </mxCell>
      </root>
    </mxGraphModel>
  </diagram>
</mxfile>
